<svg width="57" height="26" viewBox="0 0 57 26" fill="none" xmlns="http://www.w3.org/2000/svg">
<circle cx="51.4" cy="5.4" r="5.4" fill="#663399"/>
<path d="M52.0998 5.59361C52.3974 5.68001 52.6254 5.82881 52.7838 6.04001C52.9422 6.24641 53.0214 6.50801 53.0214 6.82481C53.0214 7.26641 52.8702 7.61441 52.5678 7.86881C52.2702 8.12321 51.8646 8.25041 51.351 8.25041C51.0246 8.25041 50.7102 8.19521 50.4078 8.08481C50.1054 7.97441 49.851 7.82081 49.6446 7.62401L49.8678 7.17041C50.3286 7.55921 50.8182 7.75361 51.3366 7.75361C51.6966 7.75361 51.9702 7.67441 52.1574 7.51601C52.3446 7.35281 52.4382 7.11521 52.4382 6.80321C52.4382 6.18401 52.0494 5.87441 51.2718 5.87441H50.6886V5.37761H51.1566C51.531 5.37761 51.819 5.29601 52.0206 5.13281C52.2222 4.96481 52.323 4.72481 52.323 4.41281C52.323 4.13921 52.2414 3.93041 52.0782 3.78641C51.915 3.63761 51.6822 3.56321 51.3798 3.56321C50.8902 3.56321 50.4102 3.75761 49.9398 4.14641L49.7166 3.69281C49.923 3.49601 50.175 3.34241 50.4726 3.23201C50.7702 3.12161 51.0798 3.06641 51.4014 3.06641C51.8622 3.06641 52.227 3.18401 52.4958 3.41921C52.7694 3.64961 52.9062 3.96161 52.9062 4.35521C52.9062 4.64801 52.8342 4.90481 52.6902 5.12561C52.551 5.34161 52.3542 5.49761 52.0998 5.59361Z" fill="white"/>
<path fill-rule="evenodd" clip-rule="evenodd" d="M9.82955 12.1131C9.77348 12.1131 9.71689 12.0956 9.66876 12.0586L8.28403 10.9993V17.6033H15.1343L14.0742 16.2186C13.9853 16.1022 14.0075 15.9367 14.1234 15.8478C14.2397 15.7589 14.4048 15.7812 14.4941 15.897L15.8789 17.7075C15.9513 17.8022 15.9524 17.9339 15.8789 18.0286L14.4941 19.8391C14.4428 19.9068 14.3635 19.9433 14.2847 19.9433C14.2286 19.9433 14.172 19.9258 14.1239 19.8883C14.007 19.7994 13.9853 19.6333 14.0736 19.5175L15.1342 18.1322H8.28403V25.1347L9.66982 24.0742C9.78618 23.9853 9.95173 24.0081 10.0406 24.1234C10.1295 24.2397 10.1072 24.4053 9.9914 24.4942L8.18089 25.8794C8.13223 25.9164 8.07616 25.9339 8.01957 25.9339C7.96297 25.9339 7.90638 25.9164 7.85877 25.8794L6.04879 24.4942C5.93243 24.4058 5.91074 24.2397 5.9996 24.1234C6.08793 24.007 6.25401 23.9843 6.37038 24.0742L7.7551 25.1339V18.1322H0.997956L2.05858 19.5186C2.14743 19.6344 2.12522 19.8005 2.00939 19.8893C1.96125 19.9258 1.90466 19.9433 1.84859 19.9433C1.76925 19.9433 1.69044 19.9078 1.63861 19.8396L0.253352 18.0291C0.18036 17.9344 0.18036 17.8027 0.253352 17.708L1.63861 15.8975C1.72747 15.7817 1.89302 15.7595 2.00939 15.8483C2.12522 15.9372 2.14743 16.1028 2.05858 16.2191L0.998895 17.6033H7.7551V10.9985L6.36932 12.0586C6.25348 12.1474 6.0874 12.1252 5.99854 12.0094C5.90968 11.8936 5.9319 11.7275 6.04773 11.6386L7.85772 10.2528C7.95292 10.1804 8.0841 10.1804 8.1793 10.2528L9.98981 11.6386C10.1056 11.7269 10.1279 11.893 10.0385 12.0094C9.98823 12.0771 9.90889 12.1131 9.82955 12.1131Z" fill="#663399"/>
<path fill-rule="evenodd" clip-rule="evenodd" d="M43.0183 9.76779C42.9477 9.62247 42.9081 9.45944 42.9081 9.28735C42.9081 8.67898 43.4031 8.1839 44.0115 8.1839C44.6201 8.1839 45.115 8.67898 45.115 9.28735C45.115 9.45944 45.0754 9.62247 45.0048 9.7678C46.9621 10.2194 48.4253 11.9762 48.4253 14.069V18.4827C48.4253 21.4525 49.1462 22.8965 50.6322 22.8965C50.8345 22.8965 51 23.0613 51 23.2644C51 23.4674 50.8345 23.6322 50.6322 23.6322H46.56C46.3811 24.8785 45.3066 25.8391 44.0115 25.8391C42.7166 25.8391 41.642 24.8785 41.463 23.6322H37.3908C37.1885 23.6322 37.023 23.4674 37.023 23.2644C37.023 23.0613 37.1885 22.8965 37.3908 22.8965C38.8768 22.8965 39.5977 21.4525 39.5977 18.4827V14.069C39.5977 11.9762 41.0609 10.2194 43.0183 9.76779ZM44.0115 10.3908C41.9834 10.3908 40.3334 12.0408 40.3334 14.069V18.4827C40.3334 19.4089 40.3334 21.7092 39.2034 22.8965L41.8046 22.8965H46.2184L48.8198 22.8965C47.6897 21.7092 47.6897 19.4089 47.6897 18.4827V14.069C47.6897 12.0408 46.0395 10.3908 44.0115 10.3908ZM44.0115 9.65516C44.2138 9.65516 44.3793 9.48965 44.3793 9.28735C44.3793 9.08505 44.2138 8.91953 44.0115 8.91953C43.8092 8.91953 43.6437 9.08505 43.6437 9.28735C43.6437 9.48965 43.8092 9.65516 44.0115 9.65516ZM44.0115 25.1034C43.1236 25.1034 42.3799 24.471 42.2092 23.6322H45.8138C45.6431 24.471 44.8994 25.1034 44.0115 25.1034Z" fill="#663399"/>
</svg>
