<svg width="30" height="30" viewBox="0 0 30 30" fill="none" xmlns="http://www.w3.org/2000/svg">
<path fill-rule="evenodd" clip-rule="evenodd" d="M4.875 29H5C4.724 29 4.5 29.225 4.5 29.5C4.5 29.775 4.724 30 5 30H10C10.276 30 10.5 29.775 10.5 29.5C10.5 29.225 10.276 29 10 29H20C19.725 29 19.5 29.225 19.5 29.5C19.5 29.775 19.725 30 20 30H25C25.275 30 25.5 29.775 25.5 29.5C25.5 29.225 25.275 29 25 29H25.125C27.813 29 30 26.813 30 24.125V4.875C30 2.187 27.813 0 25.125 0H4.875C2.187 0 0 2.187 0 4.875V24.125C0 26.813 2.187 29 4.875 29ZM1 4.875C1 2.738 2.738 1 4.875 1H25.125C27.262 1 29 2.738 29 4.875V24.125C29 26.262 27.262 28 25.125 28H4.875C2.738 28 1 26.262 1 24.125V4.875ZM8.463 12.375C8.463 16.097 11.491 19.125 15.213 19.125C18.936 19.125 21.963 16.097 21.963 12.375C21.963 8.653 18.936 5.625 15.213 5.625C11.491 5.625 8.463 8.653 8.463 12.375ZM9.463 12.375C9.463 9.205 12.043 6.625 15.213 6.625C18.384 6.625 20.963 9.205 20.963 12.375C20.963 15.545 18.383 18.125 15.213 18.125C12.043 18.125 9.463 15.545 9.463 12.375ZM15.213 14.875C16.5938 14.875 17.713 13.7557 17.713 12.375C17.713 10.9943 16.5938 9.875 15.213 9.875C13.8323 9.875 12.713 10.9943 12.713 12.375C12.713 13.7557 13.8323 14.875 15.213 14.875ZM7.213 22.375C7.213 23.34 7.998 24.125 8.963 24.125C9.928 24.125 10.713 23.34 10.713 22.375C10.713 21.41 9.928 20.625 8.963 20.625C7.998 20.625 7.213 21.41 7.213 22.375ZM8.213 22.375C8.213 21.961 8.549 21.625 8.963 21.625C9.377 21.625 9.713 21.961 9.713 22.375C9.713 22.789 9.377 23.125 8.963 23.125C8.549 23.125 8.213 22.789 8.213 22.375ZM21.463 24.125C20.498 24.125 19.713 23.34 19.713 22.375C19.713 21.41 20.498 20.625 21.463 20.625C22.428 20.625 23.213 21.41 23.213 22.375C23.213 23.34 22.428 24.125 21.463 24.125ZM21.463 21.625C21.049 21.625 20.713 21.961 20.713 22.375C20.713 22.789 21.049 23.125 21.463 23.125C21.877 23.125 22.213 22.789 22.213 22.375C22.213 21.961 21.877 21.625 21.463 21.625Z" fill="white"/>
</svg>
