<svg width="30" height="30" viewBox="0 0 30 30" fill="none" xmlns="http://www.w3.org/2000/svg">
<path fill-rule="evenodd" clip-rule="evenodd" d="M3 7H0.5C0.224 7 0 6.776 0 6.5V0.5C0 0.224 0.224 0 0.5 0H6.5C6.776 0 7 0.224 7 0.5V3H23V0.5C23 0.224 23.225 0 23.5 0H29.5C29.775 0 30 0.224 30 0.5V6.5C30 6.776 29.775 7 29.5 7H27V23H29.5C29.775 23 30 23.225 30 23.5V29.5C30 29.775 29.775 30 29.5 30H23.5C23.225 30 23 29.775 23 29.5V27H7V29.5C7 29.775 6.776 30 6.5 30H0.5C0.224 30 0 29.775 0 29.5V23.5C0 23.225 0.224 23 0.5 23H3V7ZM6 27V26V24H4H3H1V29H6V27ZM7 26H23V23.5C23 23.225 23.225 23 23.5 23H26V7H23.5C23.225 7 23 6.776 23 6.5V4H7V6.5C7 6.776 6.776 7 6.5 7H4V23H6.5C6.776 23 7 23.225 7 23.5V26ZM6 1V3V4V6H4H3H1V1H6ZM29 6H27H26H24V1H29V6ZM26 24H27H29V29H24V24H26Z" fill="white"/>
</svg>
