<svg width="30" height="22" viewBox="0 0 30 22" fill="none" xmlns="http://www.w3.org/2000/svg">
<path fill-rule="evenodd" clip-rule="evenodd" d="M29.5 22H0.5C0.224 22 0 21.775 0 21.5V7.478C0 7.35 0.049 7.227 0.137 7.134L6.751 0.156C6.845 0.056 6.977 0 7.114 0H29.5C29.775 0 30 0.224 30 0.5V21.5C30 21.775 29.775 22 29.5 22ZM1 21H29V1H8V7.5C8 7.776 7.776 8 7.5 8H1V21ZM1.64172 7H7V1.34709L1.64172 7ZM25 5H11C10.724 5 10.5 4.776 10.5 4.5C10.5 4.224 10.724 4 11 4H25C25.275 4 25.5 4.224 25.5 4.5C25.5 4.776 25.275 5 25 5ZM11 9H25C25.275 9 25.5 8.776 25.5 8.5C25.5 8.224 25.275 8 25 8H11C10.724 8 10.5 8.224 10.5 8.5C10.5 8.776 10.724 9 11 9ZM25 13H5C4.724 13 4.5 12.775 4.5 12.5C4.5 12.225 4.724 12 5 12H25C25.275 12 25.5 12.225 25.5 12.5C25.5 12.775 25.275 13 25 13ZM5 17H25C25.275 17 25.5 16.775 25.5 16.5C25.5 16.225 25.275 16 25 16H5C4.724 16 4.5 16.225 4.5 16.5C4.5 16.775 4.724 17 5 17Z" fill="white"/>
</svg>
