<svg width="30" height="30" viewBox="0 0 30 30" fill="none" xmlns="http://www.w3.org/2000/svg">
<path fill-rule="evenodd" clip-rule="evenodd" d="M16.316 3.5C16.316 3.776 16.541 4 16.816 4C17.093 4 17.316 3.776 17.316 3.5V0.5C17.316 0.224 17.092 0 16.816 0C16.541 0 16.316 0.224 16.316 0.5V3.5ZM23.502 10.889C23.58 11.084 23.768 11.202 23.965 11.202C24.026 11.202 24.091 11.19 24.153 11.165C24.408 11.061 24.533 10.77 24.429 10.514C23.102 7.239 19.963 5.124 16.431 5.124C14.628 5.124 12.901 5.676 11.438 6.719C11.214 6.879 11.161 7.191 11.321 7.416C11.482 7.641 11.794 7.694 12.018 7.533C13.311 6.611 14.837 6.124 16.431 6.124C19.554 6.124 22.329 7.994 23.502 10.889ZM29.316 14.5H27.316C27.041 14.5 26.816 14.276 26.816 14C26.816 13.724 27.041 13.5 27.316 13.5H29.316C29.592 13.5 29.816 13.724 29.816 14C29.816 14.276 29.593 14.5 29.316 14.5ZM8.105 6.757C8.203 6.854 8.331 6.903 8.459 6.903C8.587 6.903 8.715 6.854 8.811 6.757C9.006 6.562 9.006 6.245 8.811 6.05L7.06 4.299C6.865 4.104 6.548 4.104 6.353 4.299C6.158 4.494 6.158 4.811 6.353 5.006L8.105 6.757ZM23.96 6.462C23.832 6.462 23.704 6.413 23.606 6.316C23.411 6.121 23.411 5.804 23.606 5.609L24.917 4.299C25.111 4.104 25.429 4.104 25.624 4.299C25.818 4.494 25.818 4.811 25.624 5.006L24.313 6.316C24.216 6.414 24.088 6.462 23.96 6.462ZM20.938 29.5H9.662C4.515 29.5 0 24.723 0 19.273C0 13.825 4.515 9.047 9.662 9.047C12.917 9.047 15.882 10.643 17.683 13.34C18.726 12.828 19.819 12.569 20.938 12.569C24.959 12.569 28.486 16.361 28.486 20.681C28.486 24.762 25.189 29.5 20.938 29.5ZM9.661 10.049C5.048 10.049 1 14.36 1 19.276C1 24.19 5.048 28.502 9.661 28.502H20.938C24.565 28.502 27.486 24.226 27.486 20.685C27.486 16.896 24.426 13.574 20.938 13.574C19.841 13.574 18.77 13.864 17.754 14.437L17.331 14.676L17.081 14.26C15.493 11.622 12.721 10.049 9.661 10.049Z" fill="white"/>
</svg>
